<?xml version="1.0" encoding="UTF-8"?>
<!DOCTYPE svg PUBLIC "-//W3C//DTD SVG 1.1//EN" "http://www.w3.org/Graphics/SVG/1.1/DTD/svg11.dtd">
<!-- Creator: CorelDRAW -->
<svg xmlns="http://www.w3.org/2000/svg" xml:space="preserve" width="80mm" height="60mm" version="1.1" style="shape-rendering:geometricPrecision; text-rendering:geometricPrecision; image-rendering:optimizeQuality; fill-rule:evenodd; clip-rule:evenodd"
viewBox="0 0 8000 6000"
 xmlns:xlink="http://www.w3.org/1999/xlink"
 xmlns:xodm="http://www.corel.com/coreldraw/odm/2003">
 <defs>
  <style type="text/css">
   <![CDATA[
    .fil0 {fill:#CDA434;fill-rule:nonzero}
   ]]>
  </style>
 </defs>
 <g id="Livello_x0020_1">
  <metadata id="CorelCorpID_0Corel-Layer"/>
  <g id="_2562685830480">
   <path class="fil0" d="M307.88 3411.76c87.18,787.82 549.36,1059.61 1095.51,1060.89 646.8,-15.38 1085.26,-519.22 1085.26,-1292.29 0,-765.38 -430.77,-1276.93 -1107.05,-1276.93 -462.18,0 -839.1,238.46 -955.77,687.82l-32.05 0 77.56 -543.58c225,-148.07 532.7,-259.62 909.62,-259.62 846.15,0 1396.15,561.54 1396.15,1396.14 0,850 -569.23,1400.01 -1373.72,1403.85 -533.97,0 -878.2,-241.67 -1080.76,-572.43l-46.8 -603.85 32.05 0z"/>
   <path class="fil0" d="M6120.67 91.44l-61.82 0 -1873.82 4141.45 -1917.33 -4143.74 -62.96 0 -232.68 1980.94c490.03,206.31 239.82,570.8 362.03,-791.62l1757.07 3810.64 64.1 0c44.65,-283.88 235.81,-701.69 235.81,-701.69l1443.43 -3208.54 94.22 946.57c10.51,-7.71 13.32,-11.82 25.08,-17.61 26.85,-37.02 70.81,-56.14 115.83,-80.63l178.43 -127.41c28.44,-31.26 59.73,-49.22 90.86,-56.73l-218.25 -1751.63zm25.18 4543.22c8.36,148.05 -120.19,293.05 -267.85,293.05l-106.45 0 0 65.25 1492.65 0 0 -68.69 -108.74 0c-246.11,0 -465.89,-159.11 -501.37,-430.4l-2.42 -20.01c-15.4,-7.2 -58.51,25.67 -71.29,14.03 -16.38,-14.89 -43.06,0.04 -67.33,-8.85 -455.06,115.03 -391.96,-283.02 -367.2,155.62zm-4449.7 -187.84l-8.79 47.05c-50.24,268.94 -255.28,430.4 -500.23,430.4l-109.89 0 0 68.69 1330.11 0 0 -65.25 -106.45 0c-147.66,0 -282.07,-145.43 -267.86,-293.05l36.66 -380.95c-17.72,13.92 -36.38,25.9 -55.81,35.26 -77.57,37.37 -88.09,113.1 -217.58,132.91 -36.29,5.53 -66.1,18.2 -100.16,24.94z"/>
   <path class="fil0" d="M7682.67 3411.76c-65.44,591.39 -406.86,1063.96 -1036.11,1059.61 -19.68,0.78 -39.49,1.24 -59.41,1.28 -646.8,-15.38 -1085.26,-519.22 -1085.26,-1292.29 0,-765.38 430.77,-1276.93 1107.05,-1276.93 462.18,0 839.11,238.46 955.78,687.82l32.05 0 -77.56 -543.58c-225.01,-148.07 -532.71,-259.62 -909.63,-259.62 -846.15,0 -1396.15,561.54 -1396.15,1396.14 0,850 569.23,1400.01 1373.72,1403.85 533.97,0 878.21,-241.67 1080.77,-572.43l46.8 -603.85 -32.05 0z"/>
   <g>
    <path class="fil0" d="M927.19 5809.88c-4.65,69.25 -54.04,99.64 -116.95,99.22 -67.13,-0.84 -108.93,-46.44 -108.93,-119.48 0,-74.31 41.8,-119.91 108.51,-119.91 52.35,0 92.04,20.69 104.7,72.62l3.8 0 -9.29 -59.95c-26.17,-15.62 -63.75,-25.33 -98.79,-25.33 -85.71,0 -139.33,50.24 -139.33,132.57 0,81.91 53.62,132.15 139.33,132.57 49.82,0 94.15,-20.69 116.1,-54.46l4.65 -57.85 -3.8 0zm43.48 -146.92l0 4.22 5.91 0c13.51,0 23.65,9.29 24.07,21.95l0 200.55c-0.85,12.25 -10.98,22.38 -24.07,22.38l-5.91 0 0 4.22 86.55 0 -0.42 -4.22 -5.49 0c-13.51,0 -23.64,-10.13 -24.06,-22.8l0 -213.21c4.22,0.42 24.91,-0.85 48.55,0.42 34.2,1.69 55.31,20.26 56.15,51.93 0.43,9.29 -0.84,18.15 -2.95,24.06 -12.25,35.47 -38.84,35.89 -62.07,36.31 -13.93,0.43 -24.06,0 -24.06,0l0 4.23c16.46,0 31.24,13.93 42.64,28.28 3.38,4.23 36.73,51.94 41.38,57.85 13.09,16.04 31.66,37.15 78.53,37.15l13.09 0 0 -4.22c-23.23,-0.42 -35.05,-12.67 -52.36,-32.09 -17.31,-19.42 -37.15,-46.02 -36.73,-46.02 -9.29,-12.67 -23.64,-29.13 -32.51,-32.93 37.58,-3.8 65.44,-33.78 65.44,-69.67 0,-42.64 -32.51,-68.39 -85.71,-68.39l-105.97 0zm459.36 192.52l-4.22 0c-12.25,27.45 -26.6,47.29 -67.14,47.71l-65.86 0 0 -107.24 73.04 0c10.98,0.42 16.05,8.45 16.05,17.73l0 5.49 4.64 0 0 -59.11 -4.64 0 0 5.07c0,10.13 -5.49,17.73 -17.31,18.16l-71.78 0 0 -107.24 87.4 0c12.66,0 21.11,9.71 21.11,21.53l0 6.33 4.64 0 0 -47.71c-7.18,2.96 -30.4,6.76 -47.29,6.76l-123.28 0 0 4.22 5.91 0c13.93,0 24.49,9.29 24.49,21.95l0 200.55c-0.42,12.25 -10.98,22.38 -24.49,22.38l-5.91 0 0 4.22 171.42 0 23.22 -60.8zm154.52 -198.43l-3.8 0c-0.84,10.97 -16.47,43.48 -16.47,43.48l-87.39 187.04c-8.45,17.31 -21.53,24.49 -32.93,24.49l-3.38 0 0 4.22 80.64 0 0 -4.22 -3.38 0c-10.13,0 -21.11,-9.71 -14.77,-26.6l23.22 -54.89 106.81 0 23.23 56.16c5.48,16.04 -5.49,25.33 -14.78,25.33l-3.38 0 0 4.22 86.55 0 0 -4.22 -2.95 0c-11.4,0 -24.07,-7.18 -32.93,-24.49l-104.29 -230.52zm-52.77 160.86l48.97 -115.69 47.29 115.69 -96.26 0z"/>
    <path class="fil0" d="M1746.25 5662.54c-16.47,0 -39.69,-3.8 -46.87,-6.76l0 47.71 4.65 0 0 -6.76c0,-11.82 8.02,-21.53 21.11,-21.53l76.42 0 0 214.06c-0.43,12.67 -11.4,22.8 -24.91,22.8l-4.65 0 -0.42 4.22 86.97 0 0 -4.22 -4.64 0c-13.51,0 -24.49,-10.13 -24.91,-22.38l0 -214.48 76.42 0c12.66,0 21.11,9.71 21.11,21.53l0 6.76 4.64 0 0 -47.71c-7.6,2.96 -30.4,6.76 -47.28,6.76l-137.64 0zm309.89 253.74l-0.42 -4.22 -5.49 0c-15.62,0 -28.29,-10.13 -28.71,-22.38l0 -200.55c0.85,-12.24 13.51,-21.95 28.71,-21.95l5.91 0 0 -4.22 -95.84 0 0 4.22 5.91 0c15.62,0 28.29,10.13 28.71,22.8l0 199.28c-0.42,12.67 -13.09,22.8 -28.71,22.8l-5.91 0 0 4.22 95.84 0zm257.12 -253.32l0 4.22 7.18 0c12.67,0 22.8,9.29 23.64,21.11l0 175.21 -219.12 -206.88 -4.64 0c0,0 4.22,24.07 4.22,52.78l0 180.7c-0.42,12.25 -10.98,21.96 -23.65,21.96l-7.17 0 0 4.22 79.79 0 0 -4.22 -7.17 0c-12.67,0 -23.22,-9.71 -23.22,-21.96l0 -176.48 219.54 208.57 3.8 0c0,0 -3.8,-26.6 -3.8,-54.04l0 -179.86c0.85,-11.82 10.98,-21.11 23.22,-21.11l7.18 0 0 -4.22 -79.8 0z"/>
    <path class="fil0" d="M2685.63 5817.06c0,-10.98 6.76,-16.89 19.42,-16.89l5.49 0 0 -4.22 -77.26 0 0 4.22 5.91 0c12.24,0 19.84,5.91 19.84,16.47l-0.84 56.15c-26.6,25.76 -57.84,36.73 -92.89,36.73 -64.59,0 -108.08,-46.02 -108.08,-119.9 0,-74.31 43.06,-119.91 107.66,-119.91 59.11,0 92.04,23.22 104.71,72.62l3.38 0 -9.29 -59.95c-28.29,-17.31 -59.53,-25.33 -98.38,-25.33 -83.17,0 -138.48,50.24 -138.48,132.57 0,81.91 54.89,132.15 138.48,132.57 59.53,0 100.49,-29.55 120.33,-54.46l0 -50.67zm437.41 -160.01l-3.8 0 -107.66 214.48 -111.47 -214.48 -4.22 0 -32.51 230.94c-2.11,15.2 -14.77,24.07 -29.13,24.07l-6.33 0 0 4.22 78.53 0 0 -4.22 -6.34 0c-8.44,0 -16.46,-7.6 -15.62,-16.05l19 -170.14 101.75 196.32 4.23 0c2.95,-17.31 14.77,-43.06 14.77,-43.06l79.8 -157.06 21.95 173.94c1.27,8.87 -6.75,16.05 -15.2,16.05l-6.33 0 0 4.22 87.82 0 0 -4.22 -6.33 0c-13.94,0 -26.6,-8.45 -28.71,-23.22l-34.2 -231.79z"/>
    <path class="fil0" d="M3356.92 5657.05c-78.95,0 -142.7,54.04 -142.7,132.57 0,78.53 63.75,132.57 142.7,132.57 78.53,0 142.28,-54.04 142.28,-132.57 0,-78.53 -63.75,-132.57 -142.28,-132.57zm0 252.47c-62.48,0 -111.46,-48.55 -111.46,-119.9 0,-71.35 48.98,-119.91 111.46,-119.91 62.06,0 111.04,48.56 111.04,119.91 0,71.35 -48.98,119.9 -111.04,119.9z"/>
    <path class="fil0" d="M3536.77 5662.96l0 4.22 5.07 0c13.51,0 24.06,9.29 24.49,22.8l0 199.28c-0.43,12.24 -10.56,22.8 -23.65,22.8l-5.91 0 0 4.22 141.02 0c83.17,0 135.53,-48.13 135.53,-126.66 0,-78.53 -52.36,-126.66 -135.53,-126.66l-141.02 0zm57 12.66l84.02 0c65.02,0 105.13,43.49 105.13,114 0,70.51 -40.11,113.99 -105.13,113.99l-84.02 0 0 -227.99z"/>
    <path class="fil0" d="M4045.95 5855.48l-4.22 0c-12.25,27.45 -26.6,47.29 -67.14,47.71l-65.86 0 0 -107.24 73.04 0c10.98,0.42 16.05,8.45 16.05,17.73l0 5.49 4.64 0 0 -59.11 -4.64 0 0 5.07c0,10.13 -5.49,17.73 -17.31,18.16l-71.78 0 0 -107.24 87.4 0c12.66,0 21.11,9.71 21.11,21.53l0 6.33 4.64 0 0 -47.71c-7.18,2.96 -30.4,6.76 -47.29,6.76l-123.28 0 0 4.22 5.91 0c13.93,0 24.49,9.29 24.49,21.95l0 200.55c-0.42,12.25 -10.98,22.38 -24.49,22.38l-5.91 0 0 4.22 171.42 0 23.22 -60.8z"/>
    <path class="fil0" d="M4077.61 5662.96l0 4.22 5.91 0c13.51,0 23.65,9.29 24.07,21.95l0 200.55c-0.85,12.25 -10.98,22.38 -24.07,22.38l-5.91 0 0 4.22 86.55 0 -0.42 -4.22 -5.49 0c-13.51,0 -23.64,-10.13 -24.06,-22.8l0 -213.21c4.22,0.42 24.91,-0.85 48.55,0.42 34.2,1.69 55.31,20.26 56.15,51.93 0.43,9.29 -0.84,18.15 -2.95,24.06 -12.25,35.47 -38.84,35.89 -62.07,36.31 -13.93,0.43 -24.06,0 -24.06,0l0 4.23c16.46,0 31.24,13.93 42.64,28.28 3.38,4.23 36.73,51.94 41.38,57.85 13.09,16.04 31.66,37.15 78.53,37.15l13.09 0 0 -4.22c-23.23,-0.42 -35.05,-12.67 -52.36,-32.09 -17.31,-19.42 -37.15,-46.02 -36.73,-46.02 -9.29,-12.67 -23.64,-29.13 -32.51,-32.93 37.58,-3.8 65.44,-33.78 65.44,-69.67 0,-42.64 -32.51,-68.39 -85.71,-68.39l-105.97 0zm475.82 0l0 4.22 7.18 0c12.67,0 22.8,9.29 23.64,21.11l0 175.21 -219.12 -206.88 -4.64 0c0,0 4.22,24.07 4.22,52.78l0 180.7c-0.42,12.25 -10.98,21.96 -23.65,21.96l-7.17 0 0 4.22 79.79 0 0 -4.22 -7.17 0c-12.67,0 -23.22,-9.71 -23.22,-21.96l0 -176.48 219.54 208.57 3.8 0c0,0 -3.8,-26.6 -3.8,-54.04l0 -179.86c0.85,-11.82 10.98,-21.11 23.22,-21.11l7.18 0 0 -4.22 -79.8 0zm477.52 146.92c-4.65,69.25 -54.04,99.64 -116.95,99.22 -67.13,-0.84 -108.93,-46.44 -108.93,-119.48 0,-74.31 41.8,-119.91 108.51,-119.91 52.35,0 92.04,20.69 104.7,72.62l3.8 0 -9.29 -59.95c-26.17,-15.62 -63.75,-25.33 -98.79,-25.33 -85.71,0 -139.33,50.24 -139.33,132.57 0,81.91 53.62,132.15 139.33,132.57 49.82,0 94.15,-20.69 116.1,-54.46l4.65 -57.85 -3.8 0z"/>
    <path class="fil0" d="M5223.46 5657.05c-78.96,0 -142.71,54.04 -142.71,132.57 0,78.53 63.75,132.57 142.71,132.57 78.53,0 142.28,-54.04 142.28,-132.57 0,-78.53 -63.75,-132.57 -142.28,-132.57zm0 252.47c-62.49,0 -111.47,-48.55 -111.47,-119.9 0,-71.35 48.98,-119.91 111.47,-119.91 62.06,0 111.04,48.56 111.04,119.91 0,71.35 -48.98,119.9 -111.04,119.9z"/>
    <path class="fil0" d="M5680.7 5657.05l-3.8 0 -107.66 214.48 -111.47 -214.48 -4.22 0 -32.51 230.94c-2.11,15.2 -14.77,24.07 -29.13,24.07l-6.33 0 0 4.22 78.53 0 0 -4.22 -6.34 0c-8.44,0 -16.46,-7.6 -15.62,-16.05l19 -170.14 101.75 196.32 4.23 0c2.95,-17.31 14.77,-43.06 14.77,-43.06l79.8 -157.06 21.95 173.94c1.27,8.87 -6.75,16.05 -15.2,16.05l-6.33 0 0 4.22 87.82 0 0 -4.22 -6.33 0c-13.94,0 -26.6,-8.45 -28.71,-23.22l-34.2 -231.79zm95.42 5.91l0 4.22 5.91 0c13.93,0 24.07,9.71 24.49,22.38l0 200.12c-0.42,12.25 -10.98,22.38 -24.49,22.38l-5.91 0 0 4.22 87.82 0 -0.42 -4.22 -5.49 0c-13.93,0 -24.49,-10.13 -24.49,-22.8l0 -213.64 40.53 0c41.38,0 66.71,21.11 66.71,55.31 0,7.18 -0.84,16.89 -2.95,22.8 -21.11,60.38 -88.25,42.64 -88.25,42.64l0 4.23c57.42,27.86 121.6,-1.27 121.6,-65.45 0,-44.75 -37.58,-72.19 -96.26,-72.19l-98.8 0z"/>
    <path class="fil0" d="M6152.3 5657.05c-78.96,0 -142.71,54.04 -142.71,132.57 0,78.53 63.75,132.57 142.71,132.57 78.53,0 142.28,-54.04 142.28,-132.57 0,-78.53 -63.75,-132.57 -142.28,-132.57zm0 252.47c-62.49,0 -111.47,-48.55 -111.47,-119.9 0,-71.35 48.98,-119.91 111.47,-119.91 62.06,0 111.04,48.56 111.04,119.91 0,71.35 -48.98,119.9 -111.04,119.9zm230.52 -166.34c-13.09,-10.98 -16.46,-22.38 -16.46,-33.36 -0.43,-22.37 22.37,-40.11 50.66,-40.11 33.36,0 48.98,13.94 48.98,37.16l4.64 0 -0.42 -46.02 -14.36 0c-9.28,-2.11 -22.37,-3.8 -41.79,-3.8 -38.85,0 -70.09,27.44 -69.67,61.64 0,14.78 4.22,32.09 20.27,45.6l84.44 65.02c10.55,9.71 15.2,20.26 15.2,33.35 0,27.44 -21.11,46.02 -56.16,46.86 -37.15,0.85 -62.9,-21.53 -59.1,-59.53l-5.07 0c-5.49,16.05 -6.76,40.96 -4.22,52.36 15.62,13.51 48.13,19.84 73.04,19.84 41.8,0 75.15,-30.4 74.73,-67.97 0,-16.47 -6.33,-34.62 -19,-45.6l-85.71 -65.44zm246.57 173.1l-0.42 -4.22 -5.49 0c-15.62,0 -28.29,-10.13 -28.71,-22.38l0 -200.55c0.85,-12.24 13.51,-21.95 28.71,-21.95l5.91 0 0 -4.22 -95.84 0 0 4.22 5.91 0c15.62,0 28.29,10.13 28.71,22.8l0 199.28c-0.42,12.67 -13.09,22.8 -28.71,22.8l-5.91 0 0 4.22 95.84 0zm76 -253.74c-16.47,0 -39.69,-3.8 -46.87,-6.76l0 47.71 4.65 0 0 -6.76c0,-11.82 8.02,-21.53 21.11,-21.53l76.42 0 0 214.06c-0.43,12.67 -11.4,22.8 -24.91,22.8l-4.65 0 -0.42 4.22 86.97 0 0 -4.22 -4.64 0c-13.51,0 -24.49,-10.13 -24.91,-22.38l0 -214.48 76.42 0c12.66,0 21.11,9.71 21.11,21.53l0 6.76 4.64 0 0 -47.71c-7.6,2.96 -30.4,6.76 -47.28,6.76l-137.64 0zm309.89 253.74l-0.42 -4.22 -5.49 0c-15.62,0 -28.29,-10.13 -28.71,-22.38l0 -200.55c0.85,-12.24 13.51,-21.95 28.71,-21.95l5.91 0 0 -4.22 -95.84 0 0 4.22 5.91 0c15.62,0 28.29,10.13 28.71,22.8l0 199.28c-0.42,12.67 -13.09,22.8 -28.71,22.8l-5.91 0 0 4.22 95.84 0z"/>
    <path class="fil0" d="M7195.56 5657.05c-78.96,0 -142.71,54.04 -142.71,132.57 0,78.53 63.75,132.57 142.71,132.57 78.53,0 142.28,-54.04 142.28,-132.57 0,-78.53 -63.75,-132.57 -142.28,-132.57zm0 252.47c-62.49,0 -111.47,-48.55 -111.47,-119.9 0,-71.35 48.98,-119.91 111.47,-119.91 62.06,0 111.04,48.56 111.04,119.91 0,71.35 -48.98,119.9 -111.04,119.9z"/>
    <path class="fil0" d="M7590.73 5662.96l0 4.22 7.18 0c12.67,0 22.8,9.29 23.64,21.11l0 175.21 -219.12 -206.88 -4.64 0c0,0 4.22,24.07 4.22,52.78l0 180.7c-0.42,12.25 -10.98,21.96 -23.65,21.96l-7.17 0 0 4.22 79.79 0 0 -4.22 -7.17 0c-12.67,0 -23.22,-9.71 -23.22,-21.96l0 -176.48 219.54 208.57 3.8 0c0,0 -3.8,-26.6 -3.8,-54.04l0 -179.86c0.85,-11.82 10.98,-21.11 23.22,-21.11l7.18 0 0 -4.22 -79.8 0z"/>
   </g>
  </g>
 </g>
</svg>
